<svg width="45" height="45" viewBox="0 0 45 45" fill="none" xmlns="http://www.w3.org/2000/svg">
<path d="M35.625 7.5H31.875V5.625C31.875 5.12772 31.6775 4.65081 31.3258 4.29917C30.9742 3.94754 30.4973 3.75 30 3.75C29.5027 3.75 29.0258 3.94754 28.6742 4.29917C28.3225 4.65081 28.125 5.12772 28.125 5.625V7.5H16.875V5.625C16.875 5.12772 16.6775 4.65081 16.3258 4.29917C15.9742 3.94754 15.4973 3.75 15 3.75C14.5027 3.75 14.0258 3.94754 13.6742 4.29917C13.3225 4.65081 13.125 5.12772 13.125 5.625V7.5H9.375C7.88316 7.5 6.45242 8.09263 5.39752 9.14752C4.34263 10.2024 3.75 11.6332 3.75 13.125V35.625C3.75 37.1168 4.34263 38.5476 5.39752 39.6025C6.45242 40.6574 7.88316 41.25 9.375 41.25H35.625C37.1168 41.25 38.5476 40.6574 39.6025 39.6025C40.6574 38.5476 41.25 37.1168 41.25 35.625V13.125C41.25 11.6332 40.6574 10.2024 39.6025 9.14752C38.5476 8.09263 37.1168 7.5 35.625 7.5ZM37.5 35.625C37.5 36.1223 37.3025 36.5992 36.9508 36.9508C36.5992 37.3025 36.1223 37.5 35.625 37.5H9.375C8.87772 37.5 8.40081 37.3025 8.04918 36.9508C7.69754 36.5992 7.5 36.1223 7.5 35.625V22.5H37.5V35.625ZM37.5 18.75H7.5V13.125C7.5 12.6277 7.69754 12.1508 8.04918 11.7992C8.40081 11.4475 8.87772 11.25 9.375 11.25H13.125V13.125C13.125 13.6223 13.3225 14.0992 13.6742 14.4508C14.0258 14.8025 14.5027 15 15 15C15.4973 15 15.9742 14.8025 16.3258 14.4508C16.6775 14.0992 16.875 13.6223 16.875 13.125V11.25H28.125V13.125C28.125 13.6223 28.3225 14.0992 28.6742 14.4508C29.0258 14.8025 29.5027 15 30 15C30.4973 15 30.9742 14.8025 31.3258 14.4508C31.6775 14.0992 31.875 13.6223 31.875 13.125V11.25H35.625C36.1223 11.25 36.5992 11.4475 36.9508 11.7992C37.3025 12.1508 37.5 12.6277 37.5 13.125V18.75Z" fill="#FFFEFC"/>
</svg>
