<svg width="53" height="26" viewBox="0 0 53 26" fill="none" xmlns="http://www.w3.org/2000/svg">
<path d="M20.6565 19.1828L19.9644 19.9644C18.5746 21.3542 16.8039 22.3006 14.8762 22.6841C12.9485 23.0675 10.9504 22.8707 9.13458 22.1186C7.31874 21.3664 5.76672 20.0927 4.67477 18.4585C3.58282 16.8243 3 14.903 3 12.9375C3 10.9721 3.58282 9.05074 4.67477 7.41653C5.76672 5.78231 7.31874 4.5086 9.13458 3.75645C10.9504 3.00431 12.9485 2.80751 14.8762 3.19095C16.8039 3.57439 18.5746 4.52085 19.9644 5.91063L32.4106 19.9644C33.8004 21.3542 35.5711 22.3006 37.4988 22.6841C39.4265 23.0675 41.4246 22.8707 43.2404 22.1186C45.0563 21.3664 46.6083 20.0927 47.7002 18.4585C48.7922 16.8243 49.375 14.903 49.375 12.9375C49.375 10.9721 48.7922 9.05074 47.7002 7.41653C46.6083 5.78231 45.0563 4.5086 43.2404 3.75645C41.4246 3.00431 39.4265 2.80751 37.4988 3.19095C35.5711 3.57439 33.8004 4.52085 32.4106 5.91063L31.7185 6.69217" stroke="#FFECF1" stroke-width="6" stroke-linecap="round" stroke-linejoin="round"/>
</svg>
