<svg width="86" height="83" viewBox="0 0 86 83" fill="none" xmlns="http://www.w3.org/2000/svg">
<path d="M65.565 14.2725C64.5506 14.2725 63.559 14.5628 62.7155 15.1067C61.8721 15.6506 61.2147 16.4237 60.8265 17.3282C60.4383 18.2327 60.3367 19.228 60.5346 20.1882C60.7325 21.1484 61.221 22.0304 61.9383 22.7227C62.6556 23.4149 63.5695 23.8864 64.5644 24.0774C65.5594 24.2684 66.5906 24.1704 67.5278 23.7957C68.465 23.421 69.266 22.7866 69.8296 21.9726C70.3932 21.1586 70.694 20.2015 70.694 19.2225C70.694 17.9097 70.1536 16.6506 69.1918 15.7223C68.2299 14.794 66.9253 14.2725 65.565 14.2725ZM85.226 24.255C85.1429 20.8325 84.4787 17.4463 83.2599 14.2312C82.1731 11.4804 80.4817 8.98952 78.3019 6.93C76.1855 4.81563 73.5985 3.19348 70.7367 2.18625C67.4143 0.974163 63.9018 0.318491 60.3506 0.2475C55.82 -2.23006e-07 54.3668 0 42.7412 0C31.1156 0 29.6624 -2.23006e-07 25.1318 0.2475C21.5807 0.318491 18.0682 0.974163 14.7457 2.18625C11.8892 3.20368 9.30448 4.82444 7.18053 6.93C4.98972 8.97261 3.30893 11.4693 2.26529 14.2312C1.00938 17.4378 0.330005 20.8278 0.256447 24.255C-2.31658e-07 28.6275 0 30.03 0 41.25C0 52.47 -2.31658e-07 53.8725 0.256447 58.245C0.330005 61.6723 1.00938 65.0622 2.26529 68.2687C3.30893 71.0307 4.98972 73.5274 7.18053 75.57C9.30448 77.6756 11.8892 79.2963 14.7457 80.3137C18.0682 81.5258 21.5807 82.1815 25.1318 82.2525C29.6624 82.5 31.1156 82.5 42.7412 82.5C54.3668 82.5 55.82 82.5 60.3506 82.2525C63.9018 82.1815 67.4143 81.5258 70.7367 80.3137C73.5985 79.3065 76.1855 77.6844 78.3019 75.57C80.4913 73.5181 82.1843 71.0251 83.2599 68.2687C84.4787 65.0537 85.1429 61.6675 85.226 58.245C85.226 53.8725 85.4825 52.47 85.4825 41.25C85.4825 30.03 85.4825 28.6275 85.226 24.255ZM77.5326 57.75C77.5015 60.3684 77.0101 62.9628 76.0794 65.4225C75.3969 67.2177 74.3008 68.8397 72.8738 70.1663C71.4875 71.5296 69.8102 72.5853 67.9585 73.26C65.4099 74.1582 62.7218 74.6325 60.0087 74.6625C55.7346 74.8688 54.1531 74.91 42.9122 74.91C31.6712 74.91 30.0898 74.91 25.8157 74.6625C22.9986 74.7134 20.1935 74.2948 17.5239 73.425C15.7535 72.7158 14.1531 71.6627 12.8224 70.3312C11.4037 69.0061 10.3213 67.3827 9.65952 65.5875C8.61602 63.0925 8.03725 60.4393 7.94987 57.75C7.94987 53.625 7.69342 52.0988 7.69342 41.25C7.69342 30.4012 7.69342 28.875 7.94987 24.75C7.96903 22.0731 8.47537 19.4203 9.44581 16.9125C10.1983 15.1714 11.3532 13.6193 12.8224 12.375C14.1209 10.9567 15.7257 9.83027 17.5239 9.075C20.1292 8.16768 22.8751 7.69345 25.6447 7.6725C29.9189 7.6725 31.5003 7.425 42.7412 7.425C53.9822 7.425 55.5636 7.425 59.8377 7.6725C62.5508 7.70253 65.2389 8.17677 67.7876 9.075C69.7299 9.77069 71.4731 10.9017 72.8738 12.375C74.2744 13.6421 75.3689 15.1913 76.0794 16.9125C77.0293 19.4244 77.521 22.0761 77.5326 24.75C77.7463 28.875 77.789 30.4012 77.789 41.25C77.789 52.0988 77.7463 53.625 77.5326 57.75ZM42.7412 20.0887C38.4065 20.0969 34.1715 21.3449 30.5713 23.6751C26.9712 26.0053 24.1675 29.3131 22.5145 33.1805C20.8615 37.0479 20.4334 41.3014 21.2843 45.4036C22.1351 49.5057 24.2267 53.2725 27.2949 56.2278C30.363 59.1831 34.27 61.1944 38.5221 62.0076C42.7742 62.8208 47.1806 62.3993 51.1846 60.7965C55.1886 59.1936 58.6105 56.4813 61.0179 53.0023C63.4253 49.5232 64.7102 45.4335 64.7102 41.25C64.7159 38.4661 64.1512 35.7085 63.0486 33.1359C61.946 30.5634 60.3274 28.2266 58.2857 26.26C56.244 24.2933 53.8195 22.7357 51.1518 21.6766C48.4841 20.6175 45.6258 20.0779 42.7412 20.0887ZM42.7412 54.9863C39.9262 54.9863 37.1745 54.1806 34.8339 52.6713C32.4933 51.1619 30.6691 49.0166 29.5918 46.5066C28.5146 43.9967 28.2327 41.2348 28.7819 38.5702C29.3311 35.9056 30.6866 33.4581 32.6771 31.537C34.6676 29.616 37.2036 28.3077 39.9645 27.7777C42.7254 27.2477 45.5872 27.5197 48.1879 28.5594C50.7886 29.599 53.0115 31.3596 54.5754 33.6185C56.1393 35.8775 56.9741 38.5332 56.9741 41.25C56.9741 43.0539 56.6059 44.8401 55.8906 46.5066C55.1754 48.1732 54.127 49.6875 52.8054 50.963C51.4837 52.2385 49.9147 53.2503 48.1879 53.9406C46.4611 54.631 44.6103 54.9863 42.7412 54.9863Z" fill="#FFECF1"/>
</svg>
