<svg width="375" height="375" viewBox="0 0 375 375" fill="none" xmlns="http://www.w3.org/2000/svg">
<path d="M181.26 42.7399C177.14 42.1399 173.26 40.4199 169.97 37.8299C163.52 32.7599 150.29 26.0499 133.29 25.2399C104.08 23.8499 83.81 39.1999 73.06 41.6399C57.83 45.0999 43.58 46.7199 30.49 65.9799C18.67 83.3599 18.55 143.23 18.55 143.23C18.55 143.23 18.03 155.93 25.3 169.69C32.57 183.45 44.51 189.27 43.99 207.26C43.47 225.25 31.27 256.16 29.24 265.45C27 275.71 24.56 286 28.12 302.5C32.51 322.85 30.69 348.33 53.43 353.29C71.23 357.17 91.14 359.62 104.87 354.2C124.17 346.58 115.24 345.85 126.35 342.64C134.03 340.42 146.88 342.4 152.85 343.75C158.82 345.1 161.5 343.27 174.32 341.8C182.11 340.91 195.36 345.1 203.34 345.18C225.97 345.41 230.02 345.4 238.71 343.73C248.19 341.92 265.56 340.45 272.85 344.5C280.14 348.55 307.29 357.82 317.91 350.09C324.13 345.56 343.78 323.55 343.78 301.26C343.78 278.97 345.2 247.9 339.8 238.43C335.77 231.37 331.37 218.83 335.35 204.64C339.33 190.45 351.4 176.93 352.07 151.94C352.73 126.94 347.76 103.31 352.4 87.0999C357.04 70.8899 367.65 45.0299 333.84 25.1899C300.03 5.34991 262.91 31.0299 262.91 31.0299C262.91 31.0299 243.02 45.8899 220.48 45.8899C205.45 45.8899 189.94 43.9999 181.27 42.7399H181.26Z" fill="#FFEBDB"/>
<path d="M180.72 59.4199C177.12 58.8899 173.73 57.35 170.85 55.04C165.21 50.52 153.66 44.54 138.81 43.82C113.3 42.58 95.59 56.26 86.2 58.43C72.9 61.52 60.45 62.96 49.01 80.12C38.69 95.61 38.58 148.95 38.58 148.95C38.58 148.95 38.13 160.26 44.48 172.52C50.83 184.78 61.26 189.96 60.81 205.99C60.36 222.02 49.7 249.56 47.92 257.84C45.96 266.98 43.83 276.15 46.94 290.85C50.77 308.98 49.18 331.69 69.05 336.1C84.6 339.56 101.99 341.74 113.98 336.91C130.84 330.12 123.04 329.47 132.74 326.61C139.45 324.63 150.67 326.4 155.88 327.6C161.09 328.8 163.43 327.18 174.63 325.86C181.43 325.06 193.01 328.8 199.98 328.87C219.75 329.07 223.29 329.06 230.88 327.58C239.16 325.97 254.34 324.65 260.7 328.27C267.06 331.89 290.79 340.14 300.06 333.25C305.49 329.22 322.66 309.61 322.66 289.74C322.66 269.87 323.9 242.2 319.19 233.76C315.67 227.47 311.83 216.29 315.3 203.65C318.77 191.01 329.32 178.96 329.9 156.69C330.48 134.42 326.13 113.37 330.18 98.9199C334.23 84.4699 343.5 61.4299 313.97 43.7599C284.44 26.0899 252.01 48.96 252.01 48.96C252.01 48.96 234.64 62.2 214.95 62.2C201.83 62.2 188.27 60.52 180.7 59.4L180.72 59.4199Z" fill="#FFB8C9"/>
<path d="M181.89 77.5501C178.82 77.0901 175.93 75.7701 173.47 73.7801C168.66 69.8901 158.8 64.7401 146.12 64.1201C124.34 63.0501 109.23 74.8301 101.22 76.7001C89.86 79.3601 79.24 80.6001 69.48 95.3701C60.67 108.7 60.58 154.62 60.58 154.62C60.58 154.62 60.19 164.36 65.61 174.91C71.03 185.46 79.93 189.93 79.55 203.72C79.16 217.52 70.07 241.22 68.55 248.35C66.88 256.22 65.06 264.11 67.71 276.76C70.98 292.36 69.63 311.91 86.58 315.71C99.85 318.68 114.7 320.57 124.93 316.41C139.32 310.56 132.66 310.01 140.94 307.55C146.67 305.85 156.25 307.37 160.7 308.4C165.15 309.44 167.15 308.03 176.71 306.91C182.52 306.22 192.4 309.44 198.35 309.5C215.22 309.68 218.24 309.67 224.72 308.39C231.79 307 244.74 305.87 250.18 308.98C255.62 312.09 275.86 319.19 283.77 313.27C288.41 309.8 303.06 292.92 303.06 275.82C303.06 258.72 304.12 234.9 300.09 227.63C297.09 222.22 293.81 212.6 296.77 201.71C299.74 190.83 308.74 180.46 309.23 161.29C309.72 142.12 306.01 124 309.47 111.56C312.93 99.1201 320.84 79.2901 295.63 64.0801C270.42 48.8701 242.75 68.5601 242.75 68.5601C242.75 68.5601 227.92 79.9601 211.12 79.9601C199.92 79.9601 188.35 78.5101 181.89 77.5501Z" fill="#FF7F00"/>
<path d="M96 111.52C97.8667 111.52 99.52 111.84 100.96 112.48C102.453 113.12 103.707 113.947 104.72 114.96C105.787 115.92 106.587 116.987 107.12 118.16C107.707 119.28 108.027 120.347 108.08 121.36C108.133 122.32 108 123.147 107.68 123.84C107.413 124.533 107.04 125.12 106.56 125.6C106.08 126.027 105.547 126.373 104.96 126.64C104.373 126.853 103.76 126.96 103.12 126.96C102.373 126.96 101.68 126.8 101.04 126.48C100.293 126.107 99.7333 125.653 99.36 125.12C98.9867 124.587 98.64 124.08 98.32 123.6C98 123.067 97.6267 122.64 97.2 122.32C96.7733 121.947 96.16 121.76 95.36 121.76H94.88C93.2267 121.92 91.76 122.72 90.48 124.16C89.2 125.6 88.16 127.413 87.36 129.6C86.6133 131.787 86.1333 134.24 85.92 136.96C85.76 139.627 85.9467 142.267 86.48 144.88C86.9067 146.8 87.5733 148.16 88.48 148.96C89.3867 149.707 90.2933 150.08 91.2 150.08C91.8933 150.08 92.48 149.893 92.96 149.52C93.44 149.147 93.6267 148.667 93.52 148.08C93.4667 147.707 93.3333 146.853 93.12 145.52C92.96 144.187 92.96 142.773 93.12 141.28C93.3333 139.787 93.8933 138.4 94.8 137.12C95.7067 135.84 97.2 135.04 99.28 134.72C99.6533 134.667 100 134.64 100.32 134.64C100.64 134.587 100.933 134.56 101.2 134.56C103.333 134.56 105.093 135.04 106.48 136C107.92 136.96 109.067 138.16 109.92 139.6C110.773 140.987 111.36 142.453 111.68 144C112.053 145.547 112.24 146.907 112.24 148.08C112.293 151.813 111.84 155.173 110.88 158.16C109.92 161.093 108.587 163.6 106.88 165.68C105.173 167.707 103.173 169.28 100.88 170.4C98.5867 171.467 96.1333 172 93.52 172C90.7467 172 88.1867 171.44 85.84 170.32C83.5467 169.2 81.52 167.6 79.76 165.52C78.0533 163.44 76.6133 160.933 75.44 158C74.32 155.013 73.5467 151.707 73.12 148.08C72.8533 145.84 72.7467 143.387 72.8 140.72C72.9067 138.053 73.2533 135.36 73.84 132.64C74.4267 129.92 75.28 127.307 76.4 124.8C77.52 122.24 78.96 119.973 80.72 118C82.5333 116.027 84.6933 114.453 87.2 113.28C89.7067 112.107 92.64 111.52 96 111.52ZM112.394 163.6C112.981 160.88 113.861 158.213 115.034 155.6C116.208 152.933 117.248 150.32 118.154 147.76C118.901 145.627 119.514 143.573 119.994 141.6C120.528 139.573 121.141 137.493 121.834 135.36C121.994 134.827 122.288 133.76 122.714 132.16C123.141 130.56 123.674 128.827 124.314 126.96C125.008 125.04 125.834 123.2 126.794 121.44C127.808 119.627 128.954 118.293 130.234 117.44C130.714 117.12 131.274 116.88 131.914 116.72C132.554 116.56 133.194 116.48 133.834 116.48C134.901 116.48 135.941 116.693 136.954 117.12C137.968 117.493 138.741 118.107 139.274 118.96C140.234 120.507 141.061 122.107 141.754 123.76C142.501 125.36 143.141 127.013 143.674 128.72C144.261 130.373 144.794 132.08 145.274 133.84C145.808 135.547 146.341 137.253 146.874 138.96C147.461 140.773 148.288 142.773 149.354 144.96C150.421 147.147 151.461 149.36 152.474 151.6C153.488 153.787 154.368 155.92 155.114 158C155.914 160.08 156.341 161.947 156.394 163.6C156.394 164.56 156.314 165.547 156.154 166.56C156.048 167.52 155.808 168.4 155.434 169.2C155.114 170 154.634 170.667 153.994 171.2C153.408 171.733 152.634 172 151.674 172H141.194C140.021 172 139.114 171.44 138.474 170.32C137.834 169.147 137.381 167.68 137.114 165.92C136.848 164.16 136.714 162.267 136.714 160.24C136.768 158.16 136.848 156.213 136.954 154.4C137.061 152.587 137.168 151.04 137.274 149.76C137.434 148.427 137.488 147.68 137.434 147.52C137.328 147.093 136.954 146.8 136.314 146.64C135.674 146.427 134.954 146.32 134.154 146.32C133.301 146.32 132.474 146.453 131.674 146.72C130.928 146.933 130.421 147.28 130.154 147.76C130.101 147.867 130.234 148.533 130.554 149.76C130.928 150.987 131.301 152.507 131.674 154.32C132.101 156.08 132.448 158 132.714 160.08C133.034 162.16 133.141 164.08 133.034 165.84C132.928 167.6 132.528 169.067 131.834 170.24C131.194 171.413 130.074 172 128.474 172H117.354C115.968 172 114.901 171.707 114.154 171.12C113.408 170.48 112.874 169.733 112.554 168.88C112.234 167.973 112.074 167.04 112.074 166.08C112.128 165.12 112.234 164.293 112.394 163.6ZM130.474 137.04C130.581 137.627 130.928 138.053 131.514 138.32C132.154 138.533 132.848 138.64 133.594 138.64C134.501 138.64 135.328 138.48 136.074 138.16C136.821 137.84 137.274 137.333 137.434 136.64C137.594 136 137.594 135.04 137.434 133.76C137.328 132.48 137.088 131.2 136.714 129.92C136.394 128.587 135.968 127.44 135.434 126.48C134.954 125.52 134.394 125.093 133.754 125.2C133.008 125.307 132.394 125.867 131.914 126.88C131.434 127.893 131.061 129.067 130.794 130.4C130.528 131.68 130.368 132.96 130.314 134.24C130.261 135.467 130.314 136.4 130.474 137.04ZM177.115 162.56C177.275 161.067 177.542 159.467 177.915 157.76C178.288 156.053 178.662 154.32 179.035 152.56C179.462 150.747 179.862 148.933 180.235 147.12C180.608 145.253 180.875 143.467 181.035 141.76C181.142 140.587 181.142 139.04 181.035 137.12C180.982 135.147 180.928 133.04 180.875 130.8C180.875 128.56 180.955 126.293 181.115 124C181.328 121.653 181.755 119.573 182.395 117.76C183.088 115.893 184.075 114.373 185.355 113.2C186.688 112.027 188.422 111.44 190.555 111.44C191.728 111.44 192.795 111.867 193.755 112.72C194.768 113.52 195.675 114.533 196.475 115.76C197.275 116.987 197.968 118.32 198.555 119.76C199.195 121.147 199.755 122.453 200.235 123.68C200.768 124.907 201.222 125.947 201.595 126.8C202.022 127.6 202.395 128 202.715 128C203.035 128 203.328 127.6 203.595 126.8C203.915 125.947 204.235 124.907 204.555 123.68C204.928 122.453 205.382 121.147 205.915 119.76C206.448 118.32 207.088 116.987 207.835 115.76C208.635 114.533 209.595 113.52 210.715 112.72C211.888 111.867 213.275 111.44 214.875 111.44C217.062 111.44 218.795 112.053 220.075 113.28C221.408 114.453 222.395 115.973 223.035 117.84C223.675 119.653 224.075 121.68 224.235 123.92C224.395 126.107 224.448 128.24 224.395 130.32C224.342 132.4 224.235 134.267 224.075 135.92C223.915 137.573 223.862 138.747 223.915 139.44C224.075 141.84 224.448 143.867 225.035 145.52C225.675 147.12 226.368 148.693 227.115 150.24C227.862 151.733 228.555 153.36 229.195 155.12C229.888 156.827 230.368 158.96 230.635 161.52C230.688 162.053 230.635 162.907 230.475 164.08C230.368 165.253 229.942 166.427 229.195 167.6C228.448 168.773 227.302 169.813 225.755 170.72C224.208 171.573 222.048 172 219.275 172C216.502 172 214.315 171.733 212.715 171.2C211.115 170.667 209.888 169.973 209.035 169.12C208.235 168.213 207.702 167.2 207.435 166.08C207.168 164.907 206.982 163.733 206.875 162.56C206.768 160.853 206.928 158.827 207.355 156.48C207.835 154.08 208.422 151.6 209.115 149.04C209.808 146.427 210.555 143.84 211.355 141.28C212.208 138.72 212.955 136.4 213.595 134.32C214.235 132.24 214.688 130.533 214.955 129.2C215.275 127.813 215.248 127.013 214.875 126.8C214.662 126.693 214.528 126.64 214.475 126.64C213.995 126.64 213.515 127.12 213.035 128.08C212.555 128.987 212.075 130.133 211.595 131.52C211.115 132.907 210.608 134.4 210.075 136C209.542 137.6 208.928 139.093 208.235 140.48C207.595 141.867 206.848 143.04 205.995 144C205.142 144.907 204.182 145.36 203.115 145.36C201.835 145.36 200.715 144.907 199.755 144C198.848 143.093 198.048 141.947 197.355 140.56C196.662 139.173 196.022 137.68 195.435 136.08C194.902 134.48 194.395 132.987 193.915 131.6C193.435 130.213 192.928 129.067 192.395 128.16C191.915 127.253 191.382 126.8 190.795 126.8H190.555C189.915 126.907 189.648 127.413 189.755 128.32C189.862 129.173 190.208 130.293 190.795 131.68C191.382 133.067 192.128 134.693 193.035 136.56C193.942 138.373 194.875 140.32 195.835 142.4C196.848 144.427 197.808 146.533 198.715 148.72C199.622 150.907 200.342 153.067 200.875 155.2C201.462 157.28 201.808 159.307 201.915 161.28C202.022 163.2 201.728 164.96 201.035 166.56C200.502 167.84 199.755 168.853 198.795 169.6C197.835 170.347 196.742 170.907 195.515 171.28C194.342 171.6 193.062 171.813 191.675 171.92C190.342 171.973 188.955 172 187.515 172C185.488 172 183.782 171.76 182.395 171.28C181.008 170.747 179.888 170.053 179.035 169.2C178.235 168.293 177.675 167.28 177.355 166.16C177.088 164.987 177.008 163.787 177.115 162.56ZM235.787 123.84C236.267 122.88 236.907 121.973 237.707 121.12C238.507 120.213 239.387 119.413 240.347 118.72C241.361 118.027 242.401 117.493 243.467 117.12C244.587 116.693 245.707 116.48 246.827 116.48H249.307C251.174 116.48 252.854 116.72 254.347 117.2C255.894 117.627 257.174 118.24 258.187 119.04C259.254 119.787 260.001 120.667 260.427 121.68C260.907 122.64 260.987 123.653 260.667 124.72C260.401 125.627 259.761 126.24 258.747 126.56C257.734 126.827 256.614 126.96 255.387 126.96C254.481 126.96 253.574 126.933 252.667 126.88C251.761 126.827 250.934 126.8 250.187 126.8C249.494 126.8 248.907 126.853 248.427 126.96C248.001 127.067 247.787 127.333 247.787 127.76C247.787 128.293 248.081 128.693 248.667 128.96C249.307 129.173 250.107 129.333 251.067 129.44C252.027 129.547 253.067 129.68 254.187 129.84C255.307 129.947 256.347 130.213 257.307 130.64C258.267 131.013 259.067 131.573 259.707 132.32C260.347 133.013 260.667 134.027 260.667 135.36C260.667 136.693 260.347 137.653 259.707 138.24C259.067 138.827 258.267 139.227 257.307 139.44C256.347 139.653 255.307 139.76 254.187 139.76C253.121 139.707 252.107 139.733 251.147 139.84C250.187 139.893 249.387 140.107 248.747 140.48C248.107 140.8 247.787 141.413 247.787 142.32C247.787 144.08 248.401 145.547 249.627 146.72C250.854 147.84 252.587 148.4 254.827 148.4C255.094 148.4 255.307 148.4 255.467 148.4C255.681 148.4 255.921 148.373 256.187 148.32H256.987C258.854 148.32 260.401 148.907 261.627 150.08C262.907 151.253 263.841 152.72 264.427 154.48C265.014 156.24 265.227 158.133 265.067 160.16C264.961 162.187 264.427 164.08 263.467 165.84C262.561 167.6 261.227 169.067 259.467 170.24C257.707 171.413 255.467 172 252.747 172H245.867C244.961 172 243.947 171.787 242.827 171.36C241.761 170.88 240.694 170.24 239.627 169.44C238.614 168.587 237.654 167.6 236.747 166.48C235.894 165.307 235.201 164.053 234.667 162.72C233.494 159.733 232.641 156.48 232.107 152.96C231.627 149.44 231.441 145.92 231.547 142.4C231.707 138.88 232.134 135.52 232.827 132.32C233.521 129.067 234.507 126.24 235.787 123.84ZM267.42 159.52C267.74 159.04 268.167 158.347 268.7 157.44C269.233 156.533 269.713 155.227 270.14 153.52C270.567 151.76 270.833 149.52 270.94 146.8C271.1 144.08 270.887 140.64 270.3 136.48C270.087 135.04 269.767 133.307 269.34 131.28C268.913 129.2 268.647 127.173 268.54 125.2C268.433 123.173 268.593 121.387 269.02 119.84C269.5 118.24 270.54 117.2 272.14 116.72C272.727 116.56 273.287 116.48 273.82 116.48C274.673 116.48 275.42 116.613 276.06 116.88C276.753 117.093 277.207 117.307 277.42 117.52C278.06 117.253 278.807 117.013 279.66 116.8C280.567 116.587 281.527 116.48 282.54 116.48H283.34C285.26 116.64 287.18 117.36 289.1 118.64C291.073 119.92 292.887 121.733 294.54 124.08C296.193 126.373 297.58 129.173 298.7 132.48C299.82 135.787 300.513 139.52 300.78 143.68C300.94 146.08 300.887 148.507 300.62 150.96C300.407 153.36 299.98 155.653 299.34 157.84C298.7 160.027 297.82 162.027 296.7 163.84C295.58 165.6 294.22 167.067 292.62 168.24C290.38 169.84 288.14 170.88 285.9 171.36C283.66 171.787 281.313 172 278.86 172H277.82C276.913 172 276.113 172 275.42 172C274.78 171.947 274.007 171.92 273.1 171.92C270.7 171.92 268.967 171.44 267.9 170.48C266.887 169.467 266.247 168.293 265.98 166.96C265.767 165.627 265.82 164.267 266.14 162.88C266.513 161.44 266.94 160.32 267.42 159.52ZM285.34 147.12C285.927 147.12 286.433 146.853 286.86 146.32C287.287 145.733 287.633 144.987 287.9 144.08C288.167 143.173 288.353 142.133 288.46 140.96C288.62 139.787 288.673 138.613 288.62 137.44C288.567 136.213 288.433 135.04 288.22 133.92C288.06 132.747 287.793 131.707 287.42 130.8C287.047 129.893 286.593 129.173 286.06 128.64C285.527 128.053 284.887 127.76 284.14 127.76C283.34 127.707 282.7 128.16 282.22 129.12C281.793 130.08 281.5 131.28 281.34 132.72C281.18 134.16 281.153 135.733 281.26 137.44C281.367 139.147 281.607 140.72 281.98 142.16C282.353 143.6 282.807 144.8 283.34 145.76C283.927 146.72 284.593 147.173 285.34 147.12Z" fill="#FFEDF1"/>
<path d="M119.056 262.672C119.248 260.88 119.568 258.96 120.016 256.912C120.464 254.864 120.912 252.784 121.36 250.672C121.872 248.496 122.352 246.32 122.8 244.144C123.248 241.904 123.568 239.76 123.76 237.712C123.888 236.304 123.888 234.448 123.76 232.144C123.696 229.776 123.632 227.248 123.568 224.56C123.568 221.872 123.664 219.152 123.856 216.4C124.112 213.584 124.624 211.088 125.392 208.912C126.224 206.672 127.408 204.848 128.944 203.44C130.544 202.032 132.624 201.328 135.184 201.328C136.592 201.328 137.872 201.84 139.024 202.864C140.24 203.824 141.328 205.04 142.288 206.512C143.248 207.984 144.08 209.584 144.784 211.312C145.552 212.976 146.224 214.544 146.8 216.016C147.44 217.488 147.984 218.736 148.432 219.76C148.944 220.72 149.392 221.2 149.776 221.2C150.16 221.2 150.512 220.72 150.832 219.76C151.216 218.736 151.6 217.488 151.984 216.016C152.432 214.544 152.976 212.976 153.616 211.312C154.256 209.584 155.024 207.984 155.92 206.512C156.88 205.04 158.032 203.824 159.376 202.864C160.784 201.84 162.448 201.328 164.368 201.328C166.992 201.328 169.072 202.064 170.608 203.536C172.208 204.944 173.392 206.768 174.16 209.008C174.928 211.184 175.408 213.616 175.6 216.304C175.792 218.928 175.856 221.488 175.792 223.984C175.728 226.48 175.6 228.72 175.408 230.704C175.216 232.688 175.152 234.096 175.216 234.928C175.408 237.808 175.856 240.24 176.56 242.224C177.328 244.144 178.16 246.032 179.056 247.888C179.952 249.68 180.784 251.632 181.552 253.744C182.384 255.792 182.96 258.352 183.28 261.424C183.344 262.064 183.28 263.088 183.088 264.496C182.96 265.904 182.448 267.312 181.552 268.72C180.656 270.128 179.28 271.376 177.424 272.464C175.568 273.488 172.976 274 169.648 274C166.32 274 163.696 273.68 161.776 273.04C159.856 272.4 158.384 271.568 157.36 270.544C156.4 269.456 155.76 268.24 155.44 266.896C155.12 265.488 154.896 264.08 154.768 262.672C154.64 260.624 154.832 258.192 155.344 255.376C155.92 252.496 156.624 249.52 157.456 246.448C158.288 243.312 159.184 240.208 160.144 237.136C161.168 234.064 162.064 231.28 162.832 228.784C163.6 226.288 164.144 224.24 164.464 222.64C164.848 220.976 164.816 220.016 164.368 219.76C164.112 219.632 163.952 219.568 163.888 219.568C163.312 219.568 162.736 220.144 162.16 221.296C161.584 222.384 161.008 223.76 160.432 225.424C159.856 227.088 159.248 228.88 158.608 230.8C157.968 232.72 157.232 234.512 156.4 236.176C155.632 237.84 154.736 239.248 153.712 240.4C152.688 241.488 151.536 242.032 150.256 242.032C148.72 242.032 147.376 241.488 146.224 240.4C145.136 239.312 144.176 237.936 143.344 236.272C142.512 234.608 141.744 232.816 141.04 230.896C140.4 228.976 139.792 227.184 139.216 225.52C138.64 223.856 138.032 222.48 137.392 221.392C136.816 220.304 136.176 219.76 135.472 219.76H135.184C134.416 219.888 134.096 220.496 134.224 221.584C134.352 222.608 134.768 223.952 135.472 225.616C136.176 227.28 137.072 229.232 138.16 231.472C139.248 233.648 140.368 235.984 141.52 238.48C142.736 240.912 143.888 243.44 144.976 246.064C146.064 248.688 146.928 251.28 147.568 253.84C148.272 256.336 148.688 258.768 148.816 261.136C148.944 263.44 148.592 265.552 147.76 267.472C147.12 269.008 146.224 270.224 145.072 271.12C143.92 272.016 142.608 272.688 141.136 273.136C139.728 273.52 138.192 273.776 136.528 273.904C134.928 273.968 133.264 274 131.536 274C129.104 274 127.056 273.712 125.392 273.136C123.728 272.496 122.384 271.664 121.36 270.64C120.4 269.552 119.728 268.336 119.344 266.992C119.024 265.584 118.928 264.144 119.056 262.672ZM187.735 246.256C188.887 242.864 189.655 239.248 190.039 235.408C190.423 231.568 190.647 227.824 190.711 224.176C190.775 220.528 190.775 217.104 190.711 213.904C190.711 210.704 190.871 208.048 191.191 205.936C191.319 204.912 191.863 203.888 192.823 202.864C193.847 201.776 195.479 201.232 197.719 201.232C199.255 201.232 200.503 201.616 201.463 202.384C202.487 203.152 203.191 204.048 203.575 205.072C203.959 206.032 204.183 207.888 204.247 210.64C204.311 213.328 204.407 216.432 204.535 219.952C204.663 223.408 204.919 227.024 205.303 230.8C205.751 234.512 206.487 237.84 207.511 240.784C208.855 244.56 210.039 248.432 211.063 252.4C212.087 256.304 212.599 259.856 212.599 263.056C212.599 266.256 211.895 268.88 210.487 270.928C209.079 272.976 206.551 274 202.903 274H191.959C190.359 274 188.919 273.552 187.639 272.656C186.359 271.696 185.431 270.128 184.855 267.952C184.279 265.776 184.151 262.928 184.471 259.408C184.855 255.888 185.943 251.504 187.735 246.256ZM241.344 201.424C243.584 201.424 245.568 201.808 247.296 202.576C249.088 203.344 250.592 204.336 251.808 205.552C253.088 206.704 254.048 207.984 254.688 209.392C255.392 210.736 255.776 212.016 255.84 213.232C255.904 214.384 255.744 215.376 255.36 216.208C255.04 217.04 254.592 217.744 254.016 218.32C253.44 218.832 252.8 219.248 252.096 219.568C251.392 219.824 250.656 219.952 249.888 219.952C248.992 219.952 248.16 219.76 247.392 219.376C246.496 218.928 245.824 218.384 245.376 217.744C244.928 217.104 244.512 216.496 244.128 215.92C243.744 215.28 243.296 214.768 242.784 214.384C242.272 213.936 241.536 213.712 240.576 213.712H240C238.016 213.904 236.256 214.864 234.72 216.592C233.184 218.32 231.936 220.496 230.976 223.12C230.08 225.744 229.504 228.688 229.248 231.952C229.056 235.152 229.28 238.32 229.92 241.456C230.432 243.76 231.232 245.392 232.32 246.352C233.408 247.248 234.496 247.696 235.584 247.696C236.416 247.696 237.12 247.472 237.696 247.024C238.272 246.576 238.496 246 238.368 245.296C238.304 244.848 238.144 243.824 237.888 242.224C237.696 240.624 237.696 238.928 237.888 237.136C238.144 235.344 238.816 233.68 239.904 232.144C240.992 230.608 242.784 229.648 245.28 229.264C245.728 229.2 246.144 229.168 246.528 229.168C246.912 229.104 247.264 229.072 247.584 229.072C250.144 229.072 252.256 229.648 253.92 230.8C255.648 231.952 257.024 233.392 258.048 235.12C259.072 236.784 259.776 238.544 260.16 240.4C260.608 242.256 260.832 243.888 260.832 245.296C260.896 249.776 260.352 253.808 259.2 257.392C258.048 260.912 256.448 263.92 254.4 266.416C252.352 268.848 249.952 270.736 247.2 272.08C244.448 273.36 241.504 274 238.368 274C235.04 274 231.968 273.328 229.152 271.984C226.4 270.64 223.968 268.72 221.856 266.224C219.808 263.728 218.08 260.72 216.672 257.2C215.328 253.616 214.4 249.648 213.888 245.296C213.568 242.608 213.44 239.664 213.504 236.464C213.632 233.264 214.048 230.032 214.752 226.768C215.456 223.504 216.48 220.368 217.824 217.36C219.168 214.288 220.896 211.568 223.008 209.2C225.184 206.832 227.776 204.944 230.784 203.536C233.792 202.128 237.312 201.424 241.344 201.424Z" fill="#FFEDF1"/>
<path d="M135.036 104.477C135.036 104.51 135.036 104.543 135.036 104.757C135.036 104.971 135.036 105.366 135.064 105.474C135.092 105.582 135.149 105.392 135.208 105.196" stroke="#FFEDF1" stroke-width="15" stroke-linecap="round"/>
</svg>
