<svg width="87" height="66" viewBox="0 0 87 66" fill="none" xmlns="http://www.w3.org/2000/svg">
<path d="M78.1593 0.0849188L43.2916 0.169838L8.42395 0H8.40696C3.71944 0 0 4.39879 0 9.90153V55.9955C0 61.4982 3.71944 65.897 8.40696 65.897H78.2102C82.8977 65.897 86.6172 61.4982 86.6172 55.9955V9.90153C86.6172 4.39879 82.9317 0.0849188 78.1593 0.0849188ZM75.4249 6.87842L44.2767 35.3602L44.1578 35.4621L44.0559 35.581C43.6822 35.9886 43.2407 36.0395 43.0029 36.0395C42.7651 36.0395 42.3235 35.9716 41.9669 35.547L41.865 35.4281L12.0924 6.74255L43.2916 6.94636L75.4249 6.87842ZM78.2102 59.1035H8.40696C7.81253 59.1035 6.7935 57.9826 6.7935 55.9955V10.9885L36.9567 40.1326C38.4852 41.831 40.6421 42.8161 42.935 42.85H43.0368C45.2957 42.85 47.4017 41.9159 48.9472 40.2855L79.8577 11.9905V55.9955C79.8237 57.9826 78.8047 59.1035 78.2102 59.1035Z" fill="#FFECF1"/>
</svg>
