<svg width="42" height="42" viewBox="0 0 42 42" fill="none" xmlns="http://www.w3.org/2000/svg">
<path fill-rule="evenodd" clip-rule="evenodd" d="M20.6397 0C9.26988 0 0 9.25676 0 20.6247C0 31.9927 9.27176 41.2607 20.6397 41.2607C32.0077 41.2607 41.2607 31.9927 41.2607 20.6247C41.2607 9.25676 32.0077 0 20.6397 0ZM20.6397 3.74995C22.8566 3.74625 25.0524 4.18022 27.1013 5.027C29.1501 5.87377 31.0115 7.11667 32.579 8.68443C34.1464 10.2522 35.3889 12.1139 36.2352 14.1629C37.0815 16.2119 37.515 18.4078 37.5108 20.6247C37.5152 22.8422 37.082 25.0388 36.2359 27.0885C35.3898 29.1383 34.1475 31.0009 32.5802 32.5696C31.0129 34.1383 29.1514 35.3822 27.1024 36.2301C25.0534 37.0781 22.8572 37.5133 20.6397 37.5108C18.4213 37.5135 16.2241 37.0786 14.174 36.231C12.1238 35.3834 10.261 34.1398 8.69213 32.5713C7.12328 31.0027 5.87921 29.1402 5.03116 27.0902C4.18311 25.0403 3.74773 22.8432 3.74995 20.6247C3.74995 11.2836 11.2986 3.74995 20.6397 3.74995ZM20.6097 7.47366C20.3619 7.47608 20.117 7.52762 19.8892 7.62529C19.6614 7.72296 19.4553 7.86482 19.2827 8.04267C19.1101 8.22051 18.9744 8.43082 18.8836 8.66142C18.7928 8.89202 18.7485 9.13834 18.7535 9.38613V20.6247C18.7545 20.8715 18.8043 21.1156 18.8998 21.343C18.9954 21.5705 19.1349 21.7769 19.3104 21.9503L26.8103 29.454C26.9838 29.6325 27.1911 29.7747 27.4201 29.8723C27.6491 29.9698 27.8952 30.0208 28.1442 30.0223C28.3931 30.0237 28.6398 29.9755 28.8699 29.8806C29.1001 29.7857 29.309 29.6459 29.4845 29.4694C29.66 29.2928 29.7986 29.0831 29.8923 28.8525C29.9859 28.6218 30.0326 28.3748 30.0298 28.1259C30.027 27.877 29.9746 27.6312 29.8757 27.4027C29.7769 27.1742 29.6335 26.9678 29.454 26.7953L22.5072 19.8485V9.38613C22.5123 9.13486 22.4667 8.88515 22.3734 8.65182C22.28 8.41849 22.1406 8.20632 21.9636 8.02791C21.7866 7.84951 21.5756 7.70851 21.343 7.61329C21.1104 7.51807 20.861 7.47059 20.6097 7.47366Z" fill="#FFFEFC"/>
</svg>
